<?xml version="1.0" encoding="UTF-8"?> <svg xmlns="http://www.w3.org/2000/svg" width="181" height="68" viewBox="0 0 181 68" fill="none"><rect x="0.47998" y="0.609802" width="180" height="67.2683" rx="8" fill="white"></rect><path d="M76.1339 41.6103C73.3074 41.6103 71 43.9176 71 46.7442C71 49.5707 73.3074 51.8781 76.1339 51.8781C78.9605 51.8781 81.2678 49.5707 81.2678 46.7442C81.2678 43.9176 78.9605 41.6103 76.1339 41.6103Z" fill="#484B4B"></path><path d="M61.7821 41.6103C58.9556 41.6103 56.6482 43.9176 56.6482 46.7442C56.6482 49.5707 58.9556 51.8781 61.7821 51.8781C64.6086 51.8781 66.916 49.5707 66.916 46.7442C66.916 43.9176 64.6086 41.6103 61.7821 41.6103Z" fill="#484B4B"></path><path d="M90.486 41.6103C87.6594 41.6103 85.3521 43.9176 85.3521 46.7442C85.3521 49.5707 87.6594 51.8781 90.486 51.8781C93.3125 51.8781 95.6199 49.5707 95.6199 46.7442C95.6199 43.9176 93.3125 41.6103 90.486 41.6103Z" fill="#484B4B"></path><path d="M119.19 41.6103C116.363 41.6103 114.056 43.9176 114.056 46.7442C114.056 49.5707 116.363 51.8781 119.19 51.8781C122.016 51.8781 124.323 49.5707 124.323 46.7442C124.323 43.9176 122.016 41.6103 119.19 41.6103Z" fill="#484B4B"></path><path d="M104.838 41.6103C102.011 41.6103 99.7039 43.9176 99.7039 46.7442C99.7039 49.5707 102.011 51.8781 104.838 51.8781C107.664 51.8781 109.972 49.5707 109.972 46.7442C109.972 43.9176 107.664 41.6103 104.838 41.6103Z" fill="#484B4B"></path><path d="M55.8751 27.0622C55.8751 23.7281 58.5517 21.213 61.8512 21.213C65.1854 21.213 67.8273 23.705 67.8273 27.0392V32.1615C67.8273 32.6807 67.4697 33.0499 66.9159 33.0499C66.3506 33.0499 66.0045 32.6922 66.0045 32.1615V30.6617H65.9122C65.2085 31.8616 63.801 32.8999 61.7243 32.8999C58.5171 32.9114 55.8751 30.4195 55.8751 27.0622ZM66.0622 27.0622C66.0622 24.6626 64.2509 22.8513 61.8512 22.8513C59.4516 22.8513 57.6403 24.6626 57.6403 27.0622C57.6403 29.4619 59.4516 31.2732 61.8512 31.2732C64.2509 31.2732 66.0622 29.4619 66.0622 27.0622ZM72.4998 36.6955C72.0268 36.4648 71.796 36.061 71.9806 35.588C72.1652 35.0919 72.6152 34.8842 73.0882 35.115C73.9073 35.4957 74.9225 35.7726 76.007 35.7726C78.7066 35.7726 80.3333 34.1689 80.3333 31.4232V30.6733H80.241C79.5373 31.8731 78.1298 32.9114 76.0531 32.9114C72.8344 32.9114 70.1924 30.4195 70.1924 27.0622C70.1924 23.7281 72.869 21.213 76.1685 21.213C79.5027 21.213 82.1446 23.705 82.1446 27.0392V31.2963C82.1446 34.965 79.7911 37.4339 75.9378 37.4339C74.761 37.4339 73.5843 37.2147 72.4998 36.6955ZM80.3795 27.0622C80.3795 24.6626 78.5682 22.8513 76.1685 22.8513C73.7688 22.8513 71.9576 24.6626 71.9576 27.0622C71.9576 29.4619 73.7688 31.2732 76.1685 31.2732C78.5682 31.2732 80.3795 29.4619 80.3795 27.0622ZM84.4982 27.0622C84.4982 23.7281 87.1516 21.213 90.4743 21.213C93.8084 21.213 96.4504 23.7281 96.4504 27.0622C96.4504 30.3964 93.7969 32.9114 90.4743 32.9114C87.1516 32.9114 84.4982 30.3964 84.4982 27.0622ZM94.6968 27.0622C94.6968 24.6626 92.8855 22.8513 90.4858 22.8513C88.0861 22.8513 86.2748 24.6626 86.2748 27.0622C86.2748 29.4619 88.0861 31.2732 90.4858 31.2732C92.8855 31.2732 94.6968 29.4619 94.6968 27.0622ZM98.8154 27.0622C98.8154 23.7281 101.446 21.213 104.676 21.213C106.764 21.213 108.16 22.2513 108.864 23.4512H108.956V17.4981C108.956 16.979 109.314 16.6098 109.868 16.6098C110.433 16.6098 110.779 16.9674 110.779 17.4981V27.0738C110.779 30.4079 108.126 32.8999 104.803 32.8999C101.492 32.9114 98.8154 30.3964 98.8154 27.0622ZM109.014 27.0622C109.014 24.6626 107.203 22.8513 104.803 22.8513C102.403 22.8513 100.592 24.6626 100.592 27.0622C100.592 29.4619 102.403 31.2732 104.803 31.2732C107.191 31.2732 109.014 29.4619 109.014 27.0622ZM113.133 27.0622C113.133 23.7281 115.809 21.213 119.109 21.213C122.443 21.213 125.085 23.705 125.085 27.0392V32.1615C125.085 32.6807 124.727 33.0499 124.174 33.0499C123.608 33.0499 123.262 32.6922 123.262 32.1615V30.6617H123.17C122.466 31.8616 121.059 32.8999 118.982 32.8999C115.786 32.9114 113.133 30.4195 113.133 27.0622ZM123.32 27.0622C123.32 24.6626 121.509 22.8513 119.109 22.8513C116.709 22.8513 114.898 24.6626 114.898 27.0622C114.898 29.4619 116.709 31.2732 119.109 31.2732C121.509 31.2732 123.32 29.4619 123.32 27.0622Z" fill="#484B4B"></path></svg> 