<?xml version="1.0" encoding="UTF-8"?> <svg xmlns="http://www.w3.org/2000/svg" width="181" height="68" viewBox="0 0 181 68" fill="none"><rect x="0.320068" y="0.609802" width="180" height="67.2683" rx="8" fill="white"></rect><g clip-path="url(#clip0_27358_413)"><path d="M92.8958 26.8205C92.8958 27.8961 92.0321 28.7624 90.9602 28.7624C89.8883 28.7624 89.025 27.8961 89.025 26.8205C89.025 25.745 89.8585 24.8787 90.9602 24.8787C92.0626 24.9085 92.8958 25.7748 92.8958 26.8205ZM84.9165 30.7341V31.2124C84.9165 31.2124 83.9937 30.0166 82.0287 30.0166C78.7836 30.0166 76.2528 32.4965 76.2528 35.9317C76.2528 39.367 78.7543 41.8468 82.0287 41.8468C84.0235 41.8468 84.9165 40.622 84.9165 40.622V41.1298C84.9165 41.3689 85.0958 41.5476 85.3337 41.5476H87.7448V30.3143H85.3337C85.0958 30.3151 84.9165 30.5248 84.9165 30.7341ZM84.9165 37.9337C84.4704 38.591 83.5769 39.1588 82.5054 39.1588C80.5999 39.1588 79.141 37.9639 79.141 35.9321C79.141 33.9003 80.6003 32.7058 82.5054 32.7058C83.5476 32.7058 84.5001 33.3034 84.9165 33.9306V37.934V37.9337ZM89.5314 30.3155H92.3894V41.5488H89.5314V30.3155ZM132.226 30.0166C130.261 30.0166 129.338 31.2124 129.338 31.2124V24.9089H126.48V41.5491H128.892C129.13 41.5491 129.308 41.3398 129.308 41.1305V40.6228C129.308 40.6228 130.231 41.8476 132.196 41.8476C135.441 41.8476 137.972 39.3387 137.972 35.9329C137.972 32.5271 135.441 30.0166 132.226 30.0166ZM131.75 39.1286C130.648 39.1286 129.785 38.5616 129.338 37.9038V33.9003C129.785 33.3027 130.737 32.6755 131.75 32.6755C133.655 32.6755 135.114 33.8705 135.114 35.9019C135.114 37.9333 133.655 39.1282 131.75 39.1282V39.1286ZM124.991 34.8868V41.5786H122.133V35.2151C122.133 33.3631 121.537 32.6159 119.931 32.6159C119.068 32.6159 118.174 33.0643 117.608 33.7217V41.5491H114.75V30.3159H117.012C117.251 30.3159 117.43 30.5252 117.43 30.7345V31.2127C118.263 30.3461 119.365 30.017 120.466 30.017C121.717 30.017 122.759 30.3759 123.593 31.093C124.604 31.9294 124.992 33.005 124.992 34.8872L124.991 34.8868ZM107.812 30.0166C105.847 30.0166 104.924 31.2124 104.924 31.2124V24.9089H102.066V41.5491H104.477C104.715 41.5491 104.894 41.3398 104.894 41.1305V40.6228C104.894 40.6228 105.817 41.8476 107.782 41.8476C111.028 41.8476 113.558 39.3387 113.558 35.9329C113.588 32.5267 111.057 30.0166 107.812 30.0166ZM107.335 39.1286C106.234 39.1286 105.371 38.5616 104.924 37.9038V33.9003C105.371 33.3027 106.323 32.6755 107.335 32.6755C109.241 32.6755 110.7 33.8705 110.7 35.9019C110.7 37.9333 109.241 39.1282 107.335 39.1282V39.1286ZM99.5946 30.0166C100.458 30.0166 100.904 30.1666 100.904 30.1666V32.8252C100.904 32.8252 98.5227 32.0186 97.0344 33.7217V41.5786H94.1759V30.3159H96.5878C96.8262 30.3159 97.0042 30.5252 97.0042 30.7345V31.2127C97.5408 30.5852 98.7019 30.017 99.595 30.017L99.5946 30.0166ZM69.9117 40.5329C69.763 40.1743 69.6139 39.786 69.4652 39.4573C69.2264 38.9197 68.9885 38.4116 68.7803 37.9337L68.7505 37.9038C66.696 33.4224 64.493 28.8818 62.1704 24.4008L62.0811 24.2209C61.8367 23.756 61.5988 23.2881 61.3669 22.8167C61.0687 22.2787 60.7713 21.7116 60.295 21.1733C59.3428 19.9787 57.9731 19.3214 56.5145 19.3214C55.0559 19.3214 53.6858 19.9787 52.7039 21.114C52.257 21.6516 51.9294 22.219 51.632 22.7574C51.3998 23.2284 51.1614 23.6964 50.9178 24.1616L50.8282 24.3415C48.5356 28.8225 46.3029 33.3631 44.2484 37.8445L44.2182 37.9038C44.01 38.3825 43.7713 38.8902 43.5334 39.4274C43.3847 39.7565 43.2359 40.1147 43.0872 40.503C42.6998 41.6081 42.5808 42.6538 42.7299 43.7297C43.0575 45.9704 44.5458 47.8518 46.6004 48.689C47.3745 49.0181 48.1787 49.1673 49.0119 49.1673C49.2502 49.1673 49.5477 49.1375 49.786 49.1072C50.7687 48.9879 51.7807 48.6596 52.7634 48.0921C53.984 47.4049 55.1452 46.4193 56.455 44.9852C57.7649 46.4193 58.9558 47.4045 60.1467 48.0921C61.1297 48.6599 62.1414 48.9882 63.1241 49.1072C63.3624 49.1379 63.6602 49.1673 63.8985 49.1673C64.7321 49.1673 65.5657 49.0181 66.3097 48.689C68.394 47.8518 69.8526 45.9406 70.1805 43.7297C70.4169 42.6844 70.298 41.6391 69.9109 40.5333L69.9117 40.5329ZM56.4844 42.0864C54.8763 40.055 53.8342 38.143 53.4772 36.5302C53.3285 35.843 53.2984 35.2453 53.388 34.7077C53.4471 34.2294 53.6263 33.8112 53.8647 33.4527C54.4306 32.6465 55.3831 32.1383 56.4848 32.1383C57.5864 32.1383 58.5691 32.6166 59.1053 33.4527C59.3436 33.8112 59.522 34.2298 59.5819 34.7077C59.6708 35.2457 59.641 35.8728 59.4923 36.5302C59.1339 38.1131 58.0917 40.0251 56.4844 42.0864ZM68.3631 43.4906C68.1549 45.0441 67.1127 46.3887 65.6542 46.9863C64.9396 47.2848 64.1651 47.3747 63.3918 47.2848C62.6474 47.1949 61.9027 46.9557 61.1293 46.508C60.0574 45.91 58.9859 44.9844 57.7351 43.61C59.7001 41.1906 60.891 38.9794 61.3375 37.0081C61.5461 36.0817 61.5763 35.2453 61.4863 34.4682C61.3677 33.7213 61.0992 33.0341 60.6824 32.4368C59.7588 31.0918 58.2107 30.3159 56.4844 30.3159C54.7581 30.3159 53.2095 31.1224 52.2867 32.4368C51.8699 33.0345 51.6019 33.7217 51.4829 34.4682C51.3639 35.2453 51.3933 36.1116 51.6316 37.0081C52.0782 38.9794 53.2988 41.2201 55.2336 43.6398C54.013 45.0142 52.9114 45.9406 51.8394 46.5379C51.0653 46.9863 50.3214 47.2251 49.577 47.3146C48.7732 47.4045 47.9987 47.2848 47.3142 47.0162C45.8557 46.4185 44.8135 45.0739 44.6053 43.5205C44.516 42.7736 44.5752 42.027 44.8734 41.1906C44.9622 40.8914 45.1117 40.5929 45.2604 40.2348C45.469 39.7565 45.7066 39.2484 45.9453 38.7406L45.9754 38.6813C48.0296 34.2298 50.2325 29.6887 52.5251 25.2678L52.6143 25.088C52.853 24.6403 53.091 24.162 53.3289 23.714C53.5672 23.2357 53.8349 22.7876 54.1625 22.3988C54.7879 21.6826 55.6211 21.2938 56.5443 21.2938C57.4675 21.2938 58.301 21.6826 58.926 22.3988C59.254 22.7884 59.5217 23.2364 59.7596 23.714C59.9983 24.1624 60.2363 24.6403 60.4742 25.088L60.5638 25.2678C62.8213 29.7075 64.9952 34.1892 67.0841 38.7112V38.741C67.3229 39.2197 67.5311 39.7569 67.769 40.2356C67.9177 40.5933 68.0668 40.8918 68.1561 41.191C68.3936 41.967 68.4829 42.7142 68.3635 43.491L68.3631 43.4906Z" fill="#484B4B"></path></g><defs><clipPath id="clip0_27358_413"><rect width="95.304" height="29.8452" fill="white" transform="translate(42.6681 19.3214)"></rect></clipPath></defs></svg> 