<?xml version="1.0" encoding="UTF-8"?> <svg xmlns="http://www.w3.org/2000/svg" width="181" height="68" viewBox="0 0 181 68" fill="none"><rect x="0.840027" y="0.609802" width="180" height="67.2683" rx="8" fill="white"></rect><path d="M105.662 28.9498H104.548C103.87 28.9028 103.337 29.138 102.998 29.7498C102.174 28.9969 101.157 28.7145 100.092 28.6675C98.2994 28.6204 96.7978 29.2322 95.7806 30.691C94.5213 32.6675 94.4244 34.7851 95.3931 36.8557C96.6041 39.6322 99.9463 40.5733 102.562 38.9263H102.659C102.756 40.1498 102.126 40.9969 100.915 41.2792C100.382 41.4204 99.801 41.4204 99.2681 41.3263C98.6869 41.2792 98.1057 41.0439 97.5244 40.9498C96.9916 40.8086 96.6525 40.9969 96.4588 41.4675C96.2166 41.938 96.0713 42.4557 95.8291 42.9263C95.7322 43.1616 95.7806 43.2086 95.9744 43.3028C96.5556 43.5851 97.1369 43.7733 97.7181 43.9616C98.1056 44.0557 98.4931 44.0557 98.8807 44.2439H100.867C101.012 44.1028 101.254 44.1498 101.448 44.1028C102.804 43.8204 104.015 43.2557 104.887 42.1733C105.613 41.2322 105.904 40.1498 105.904 39.0204V29.138C105.953 28.9969 105.904 28.9028 105.662 28.9498ZM102.513 35.6792C102.223 36.5263 101.593 36.9498 100.721 36.9969C99.801 37.0439 99.026 36.7145 98.5416 35.9145C98.251 35.3498 98.1056 34.738 98.1056 34.0322C98.1056 33.4204 98.251 32.8086 98.6869 32.2439C99.2681 31.491 100.043 31.4439 100.915 31.538C101.69 31.6322 102.271 32.0557 102.513 32.8086C102.853 33.7498 102.853 34.738 102.513 35.6792Z" fill="#484B4B"></path><path d="M79.6994 24.2439H78.9244C78.876 24.338 78.7791 24.338 78.7307 24.338C77.9072 24.6675 77.4713 25.2792 77.5197 26.1733C77.5681 27.2557 78.4885 28.0086 79.6994 27.9145C80.6682 27.8204 81.4916 26.7851 81.2978 25.7969C81.0557 24.9498 80.5228 24.4792 79.6994 24.2439Z" fill="#484B4B"></path><path d="M152.84 32.8086C152.84 32.291 152.792 31.7733 152.646 31.3028C152.404 30.3616 151.92 29.5616 150.999 29.138C149.885 28.6204 148.674 28.6204 147.512 28.9969C146.688 29.2792 146.059 29.7498 145.526 30.4086C145.332 30.6439 145.284 30.5969 145.138 30.3616C145.042 30.2204 144.945 30.0792 144.848 29.938C143.976 28.8086 142.087 28.3851 140.585 29.0439C139.907 29.3263 139.326 29.7969 138.793 30.3616C138.745 30.2675 138.745 30.2204 138.696 30.1263C138.454 29.3733 138.115 29.091 137.292 29.0439C136.856 28.9969 136.42 29.0439 136.032 29.0439C135.79 29.0439 135.693 29.091 135.693 29.3733V39.7733C135.693 40.0086 135.742 40.0557 135.984 40.0557H138.503C138.745 40.0557 138.793 39.9616 138.793 39.7263V35.2086C138.793 34.5969 138.89 33.9851 139.084 33.4204C139.374 32.6204 139.81 31.9616 140.682 31.6322C141.554 31.3498 142.281 31.7733 142.523 32.5733C142.62 32.8557 142.62 33.138 142.62 33.4204V39.6322C142.62 39.8675 142.668 40.0086 142.959 39.9616H145.429C145.671 39.9616 145.768 39.9145 145.72 39.6322V35.1145C145.72 34.5028 145.817 33.938 146.01 33.3733C146.349 32.5263 146.834 31.8204 147.803 31.5851C148.626 31.3969 149.304 31.6322 149.498 32.5263C149.546 32.8557 149.546 33.1851 149.546 33.4675V38.3616C149.546 39.4439 150.079 39.9145 151.145 39.9616H152.259C152.549 39.9616 152.646 39.9145 152.646 39.6322C152.84 37.3733 152.84 35.1145 152.84 32.8086Z" fill="#484B4B"></path><path d="M75.4369 37.6086C74.8072 36.6204 74.3228 35.538 73.7416 34.5498C73.6447 34.3616 73.3541 34.1733 73.3541 33.9851C73.3541 33.7969 73.6447 33.6557 73.79 33.4675C74.8072 32.0557 75.776 30.5969 76.7932 29.1851C76.8416 29.138 76.89 29.0439 76.89 28.9969C76.8416 28.9028 76.7447 28.9498 76.6963 28.9498H73.5963C73.3541 28.9498 73.2572 28.9969 73.1119 29.1851C72.4822 30.1733 71.8041 31.1145 71.1744 32.1028C70.9322 32.5263 70.5447 32.6675 70.1088 32.6675C69.8181 32.6675 69.7213 32.5733 69.7213 32.291V26.2204C69.7213 25.2322 69.2369 24.7616 68.2197 24.7145H66.7182C66.476 24.7145 66.4275 24.8086 66.4275 24.9969V39.7263C66.4275 39.9616 66.5244 40.0086 66.7182 40.0086H69.3338C69.6244 40.0086 69.6728 39.9616 69.6728 39.6792V35.7263C69.6728 35.6322 69.576 35.491 69.8181 35.4439C70.2541 35.3498 70.5932 35.491 70.8353 35.8675C71.4166 36.9028 71.9978 37.938 72.5307 39.0204C72.8213 39.538 73.2572 39.9616 73.8869 40.0086C74.9041 40.0557 75.8728 40.0086 76.9385 40.0086C76.8416 39.8675 76.7932 39.7263 76.6963 39.5851C76.2603 38.9263 75.8728 38.2675 75.4369 37.6086Z" fill="#484B4B"></path><path d="M93.6494 32.1028C93.5041 30.7851 93.0197 29.6557 91.6635 29.138C89.9197 28.4322 88.2244 28.5733 86.7228 29.7028C86.5291 29.8439 86.3353 30.0322 86.1416 30.1733C85.8025 29.2792 85.3666 28.9498 84.3978 28.9498H83.2353C82.9932 28.9498 82.9447 28.9969 82.9447 29.2322V39.7733C82.9447 39.9616 82.9931 40.0086 83.1869 40.0086H85.8994C86.1416 40.0086 86.2385 39.9616 86.19 39.6792V34.7851C86.19 34.5028 86.19 34.2204 86.2869 33.938C86.5775 32.5263 87.6432 31.6322 88.9994 31.6322C89.8228 31.6322 90.2103 32.0086 90.3557 32.7616C90.4041 33.1851 90.4041 33.6557 90.4041 34.0792V38.3145C90.4041 39.4439 90.9369 39.9145 92.0994 39.9616H93.3588C93.601 39.9616 93.6494 39.9145 93.6494 39.6322V35.4439C93.6978 34.3616 93.7947 33.2322 93.6494 32.1028Z" fill="#484B4B"></path><path d="M59.7432 28.7616C56.3041 28.5263 53.4463 30.738 53.301 34.2675C53.2041 37.4204 55.3838 40.0086 58.9682 40.1498C62.4557 40.291 65.1197 37.9851 65.2166 34.6439C65.3135 31.5851 63.1822 28.9969 59.7432 28.7616ZM61.5838 36.1969C61.0994 37.091 60.2275 37.5145 59.2103 37.4675C58.1932 37.4675 57.4182 36.9969 56.9338 36.1028C56.6432 35.5851 56.4978 35.0204 56.5463 34.4086C56.5463 33.7969 56.6916 33.2322 56.9822 32.6675C57.9994 30.9263 60.5666 30.9263 61.5838 32.6675C62.2135 33.8439 62.2135 35.0675 61.5838 36.1969Z" fill="#484B4B"></path><path d="M46.5682 28.7145C43.1775 28.7145 40.6103 31.0675 40.6103 34.3145C40.6103 37.7498 43.0322 40.1498 46.5197 40.1498C50.0072 40.1498 52.4775 37.7969 52.4775 34.5498C52.526 31.1616 50.0557 28.7616 46.5682 28.7145ZM49.1353 35.6322C48.7478 36.8086 47.7307 37.5145 46.4713 37.4675C45.2603 37.4204 44.2916 36.6675 43.9525 35.491C43.8557 35.1616 43.8072 34.7851 43.8072 34.4086C43.8072 33.9851 43.8557 33.5145 44.0494 33.091C44.5338 31.9616 45.551 31.3498 46.8103 31.4439C47.9728 31.538 48.9416 32.4322 49.2322 33.6086C49.3775 34.3145 49.3291 34.9733 49.1353 35.6322Z" fill="#484B4B"></path><path d="M125.134 29.7498C122.809 31.3028 121.985 34.4557 123.293 37.0439C124.359 39.2086 126.248 40.1498 128.67 40.1969C129.59 40.1969 130.51 40.0086 131.382 39.6322C134.773 38.1263 135.403 34.0322 133.853 31.4439C132.012 28.4792 127.749 28.0086 125.134 29.7498ZM131.14 35.9616C130.656 36.9969 129.638 37.6086 128.524 37.5145C127.313 37.4204 126.393 36.6675 126.054 35.538C125.957 35.1616 125.909 34.8322 125.909 34.4557C125.957 33.3263 126.345 32.291 127.459 31.7263C129.057 30.9263 130.946 31.8675 131.334 33.5616C131.479 34.3616 131.479 35.1616 131.14 35.9616Z" fill="#484B4B"></path><path d="M121.113 36.0086C120.774 36.3851 120.387 36.6675 119.999 36.9028C119.128 37.4204 118.159 37.7028 117.093 37.4675C115.446 37.091 114.574 36.0086 114.623 34.2675C114.671 32.3851 116.27 31.1145 118.159 31.4439C118.546 31.538 118.885 31.6792 119.031 32.1028C119.176 32.5733 119.612 32.7616 120.096 32.7616H121.453C121.743 32.7616 121.84 32.7145 121.84 32.4322C121.792 32.1498 121.84 31.8675 121.84 31.5851C121.888 30.5028 121.356 29.7969 120.435 29.3263C119.273 28.7616 118.062 28.6204 116.803 28.7616C115.059 28.9498 113.654 29.7028 112.588 31.0675C111.62 32.338 111.378 33.7969 111.523 35.3028C111.668 36.6204 112.249 37.7498 113.267 38.6439C114.768 39.9616 116.512 40.3851 118.498 40.1498C119.951 39.9616 121.21 39.3498 122.228 38.3616C122.324 38.2675 122.47 38.1733 122.324 37.938C121.937 37.3263 121.549 36.6675 121.113 36.0086Z" fill="#484B4B"></path><path d="M79.6994 28.9969C79.1666 28.9498 78.5853 28.9969 78.0525 28.9498C77.8588 28.9498 77.8588 29.0439 77.8588 29.1851V39.6792C77.8588 39.9616 77.9072 40.0086 78.1978 40.0086H80.8619C81.0557 40.0086 81.1041 39.9616 81.1041 39.7733V30.4557C81.1041 29.5616 80.6197 29.0439 79.6994 28.9969Z" fill="#484B4B"></path><path d="M109.101 36.4322C108.084 36.4322 107.212 37.2792 107.212 38.2675C107.212 39.2557 108.035 40.1028 109.101 40.1498C110.167 40.1498 110.99 39.3498 110.99 38.3145C110.99 37.2792 110.167 36.4322 109.101 36.4322Z" fill="#484B4B"></path><path d="M37.801 32.1498C37.6557 32.0557 37.5103 32.0557 37.4135 31.9145C37.5588 31.7733 37.7041 31.6792 37.8494 31.538C39.6416 29.938 39.4478 26.9733 37.4619 25.6086C36.7838 25.138 36.0088 24.9028 35.2338 24.8086C33.6353 24.6675 31.9885 24.7616 30.3416 24.7616C29.5666 24.7616 28.9369 25.4204 28.84 26.1733V39.9145C28.9853 39.9616 29.0822 39.9616 29.2275 39.9616H34.2166C34.6525 39.9616 35.0885 39.9616 35.5244 39.8675C37.9947 39.491 39.9322 37.938 39.69 35.1145C39.5932 33.7969 39.0119 32.8086 37.801 32.1498ZM31.8432 29.4204V28.2439C31.8432 27.6322 32.1338 27.3028 32.7635 27.2557C33.3932 27.2086 34.0228 27.2086 34.6525 27.3028C35.6697 27.491 36.2025 28.4792 35.9119 29.6086C35.7182 30.4086 35.0885 30.8792 34.2166 30.9263H32.0853C31.8432 30.9263 31.7947 30.8792 31.7947 30.6439C31.8432 30.2204 31.8432 29.7969 31.8432 29.4204ZM35.1853 37.2792C34.8463 37.3733 34.5557 37.3733 34.2166 37.3733H32.1338C31.94 37.3733 31.8916 37.3263 31.8916 37.138V34.1733C31.94 33.5145 32.2791 33.1851 32.9088 33.2322C33.5385 33.2322 34.2166 33.1851 34.8463 33.2792C35.9119 33.4204 36.4447 34.0322 36.59 35.0675C36.6869 36.1498 36.1541 37.0439 35.1853 37.2792Z" fill="#484B4B"></path></svg> 