<?xml version="1.0" encoding="UTF-8"?> <svg xmlns="http://www.w3.org/2000/svg" width="181" height="68" viewBox="0 0 181 68" fill="none"><rect x="0.160034" y="0.609802" width="180" height="67.2683" rx="8" fill="white"></rect><mask id="mask0_27358_388" style="mask-type:luminance" maskUnits="userSpaceOnUse" x="33" y="22" width="115" height="24"><path d="M147.071 22.7889H33.2487V45.6989H147.071V22.7889Z" fill="white"></path></mask><g mask="url(#mask0_27358_388)"><path fill-rule="evenodd" clip-rule="evenodd" d="M49.495 43.2472H37.4517C35.1347 43.2472 33.2487 41.3612 33.2487 39.0352V26.9919C33.2487 24.6749 35.1347 22.7889 37.4517 22.7889H49.495C51.821 22.7889 53.698 24.6749 53.698 26.9919V39.0352C53.707 41.3612 51.821 43.2472 49.495 43.2472ZM39.4979 39.269V37.2842C39.4979 37.1226 39.3721 36.9969 39.2105 36.9969H37.2257C37.0641 36.9969 36.9383 37.1226 36.9383 37.2842V39.269C36.9383 39.4307 37.0641 39.5564 37.2257 39.5564H39.2105C39.3721 39.5564 39.4979 39.4307 39.4979 39.269ZM50.0164 27.7821V37.5622C50.0164 37.7598 49.9446 37.8765 49.8279 38.0023L47.8611 39.9601C47.7173 40.1038 47.5018 40.005 47.5018 39.7894V30.9433L42.0145 36.4306C41.9247 36.5294 41.8259 36.5743 41.6553 36.5743H40.2094C40.0388 36.5743 39.922 36.4575 39.922 36.2869V34.841C39.922 34.6793 39.9669 34.5805 40.0657 34.4818L45.553 28.9945H36.7069C36.4914 28.9945 36.3926 28.779 36.5363 28.6353L38.4851 26.6685C38.6108 26.5428 38.7276 26.4709 38.9251 26.4709H48.7052C49.4327 26.4709 50.0164 27.0546 50.0164 27.7821Z" fill="#484B4B"></path><path d="M79.7066 35.0387L83.712 29.5065C83.8288 29.3359 83.739 29.1652 83.5414 29.1652H81.3591C81.2423 29.1652 81.0897 29.2101 81.0178 29.3359L78.3774 33.1886L75.6742 29.3359C75.6024 29.2191 75.4587 29.1652 75.333 29.1652H73.0069C72.8902 29.1652 72.8093 29.264 72.8093 29.3628C72.8093 29.4077 72.8093 29.4616 72.8542 29.5065L76.8687 35.0566L72.4412 41.1456C72.3244 41.3162 72.4142 41.4869 72.5848 41.4869H74.7851C74.9019 41.4869 75.0546 41.442 75.1264 41.3162L78.1889 36.9067L81.2962 41.3162C81.368 41.442 81.5117 41.4869 81.6375 41.4869H83.9815C84.0982 41.4869 84.179 41.3881 84.179 41.2893C84.179 41.2444 84.1521 41.1905 84.1341 41.1456L79.7066 35.0387Z" fill="#484B4B"></path><path d="M70.7616 24.5401C70.9323 24.5401 71.049 24.6569 71.049 24.8275V26.471C71.049 26.6416 70.9323 26.7584 70.7616 26.7584H62.9394V31.6439H69.9624C70.133 31.6439 70.2498 31.7607 70.2498 31.9313V33.5658C70.2498 33.7365 70.133 33.8532 69.9624 33.8532H62.9394V39.2058H70.7616C70.9323 39.2058 71.049 39.3225 71.049 39.4932V41.1905C71.049 41.3612 70.9323 41.4779 70.7616 41.4779H61.6102C60.9097 41.4779 60.3799 40.948 60.3799 40.2475V25.7705C60.3799 25.07 60.9097 24.5401 61.6102 24.5401H70.7616Z" fill="#484B4B"></path><path d="M92.4226 28.7791C90.0519 28.7791 88.7943 29.8209 88.067 30.7908V29.4527C88.067 29.282 87.9505 29.1653 87.7799 29.1653H85.8668C85.6962 29.1653 85.5794 29.291 85.5794 29.4527V45.4025C85.5794 45.5732 85.6962 45.69 85.8668 45.69H87.8064C87.977 45.69 88.094 45.5732 88.094 45.4025V39.9063C88.7943 40.8762 90.0519 41.8462 92.4226 41.8462C96.2756 41.8462 98.5205 38.9454 98.5205 35.3082C98.5205 31.671 96.2756 28.7791 92.4226 28.7791ZM91.9914 39.7626C89.6208 39.7626 87.9955 38.1641 87.9955 35.3351C87.9955 32.5062 89.6208 30.8537 91.9914 30.8537C94.3626 30.8537 95.9614 32.4972 95.9614 35.3351C95.9614 38.1641 94.3626 39.7626 91.9914 39.7626Z" fill="#484B4B"></path><path d="M106.155 28.7791C102.787 28.7791 100.102 31.2039 100.102 35.2184C100.102 39.3316 102.472 41.8552 106.469 41.8552C108.768 41.8552 110.681 40.8403 111.866 39.4303C111.938 39.3585 111.965 39.2867 111.965 39.2148C111.965 39.143 111.938 39.0711 111.866 38.9993L110.753 37.9036C110.681 37.8317 110.609 37.8048 110.537 37.8048C110.465 37.8048 110.393 37.8497 110.322 37.9216C109.405 38.9184 108.211 39.7626 106.496 39.7626C103.99 39.7626 102.787 38.218 102.598 35.9907H111.893C112.064 35.9907 112.18 35.8649 112.18 35.7033V35.2184C112.18 31.5362 109.953 28.7791 106.155 28.7791ZM102.688 34.1047C102.975 32.084 104.035 30.7639 106.137 30.7639C108.292 30.7639 109.432 31.9942 109.594 34.1047H102.688Z" fill="#484B4B"></path><path d="M146.792 29.165H144.879C144.709 29.165 144.592 29.2818 144.592 29.4524V30.8085C143.864 29.8386 142.607 28.7968 140.183 28.7968C136.384 28.7968 134.13 31.6976 134.13 35.3349C134.13 38.9721 136.384 41.8729 140.183 41.8729C142.607 41.8729 143.864 40.8311 144.592 39.8612V41.1903C144.592 41.3609 144.709 41.4777 144.879 41.4777H146.792C146.963 41.4777 147.08 41.3609 147.08 41.1903V29.4524C147.089 29.2818 146.963 29.165 146.792 29.165ZM140.667 39.7893C138.297 39.7893 136.698 38.1459 136.698 35.3079C136.698 32.479 138.297 30.8804 140.667 30.8804C143.039 30.8804 144.664 32.479 144.664 35.3079C144.664 38.1459 143.039 39.7893 140.667 39.7893Z" fill="#484B4B"></path><path d="M126.417 24.5401H124.476C124.306 24.5401 124.189 24.6569 124.189 24.8275V30.8087C123.461 29.8388 122.232 28.797 119.807 28.797C116.008 28.797 113.754 31.6978 113.754 35.335C113.754 38.9722 116.008 41.873 119.807 41.873C122.232 41.873 123.489 40.8313 124.216 39.8613V41.1905C124.216 41.3612 124.333 41.4779 124.504 41.4779H126.417C126.587 41.4779 126.704 41.3612 126.704 41.1905V24.8275C126.704 24.6569 126.587 24.5401 126.417 24.5401ZM120.291 39.7895C117.921 39.7895 116.322 38.146 116.322 35.3081C116.322 32.4791 117.921 30.8806 120.291 30.8806C122.663 30.8806 124.288 32.4791 124.288 35.3081C124.288 38.146 122.663 39.7895 120.291 39.7895Z" fill="#484B4B"></path><path d="M131.688 24.5401C131.859 24.5401 131.975 24.6569 131.975 24.8275V26.8123C131.975 26.9829 131.859 27.0997 131.688 27.0997H129.703C129.532 27.0997 129.416 26.9829 129.416 26.8123V24.8275C129.416 24.6569 129.532 24.5401 129.703 24.5401H131.688Z" fill="#484B4B"></path><path d="M131.669 29.1652C131.839 29.1652 131.956 29.282 131.956 29.4526V41.1905C131.956 41.3611 131.839 41.4779 131.669 41.4779H129.729C129.558 41.4779 129.441 41.3611 129.441 41.1905V29.4526C129.441 29.282 129.558 29.1652 129.729 29.1652H131.669Z" fill="#484B4B"></path></g></svg> 