<?xml version="1.0" encoding="UTF-8"?> <svg xmlns="http://www.w3.org/2000/svg" width="180" height="68" viewBox="0 0 180 68" fill="none"><rect y="0.609802" width="180" height="67.2683" rx="8" fill="white"></rect><path d="M83.7602 34.9868C83.7602 39.0585 80.5521 42.0589 76.6149 42.0589C72.6777 42.0589 69.4695 39.0585 69.4695 34.9868C69.4695 30.8865 72.6777 27.9148 76.6149 27.9148C80.5521 27.9148 83.7602 30.8865 83.7602 34.9868ZM80.6323 34.9868C80.6323 32.4425 78.7729 30.7016 76.6149 30.7016C74.4568 30.7016 72.5974 32.4425 72.5974 34.9868C72.5974 37.5057 74.4568 39.2721 76.6149 39.2721C78.7729 39.2721 80.6323 37.5025 80.6323 34.9868Z" fill="#484B4B"></path><path d="M99.1749 34.9868C99.1749 39.0585 95.9667 42.0589 92.0296 42.0589C88.0924 42.0589 84.8842 39.0585 84.8842 34.9868C84.8842 30.8897 88.0924 27.9148 92.0296 27.9148C95.9667 27.9148 99.1749 30.8865 99.1749 34.9868ZM96.047 34.9868C96.047 32.4425 94.1876 30.7016 92.0296 30.7016C89.8715 30.7016 88.0121 32.4425 88.0121 34.9868C88.0121 37.5057 89.8715 39.2721 92.0296 39.2721C94.1876 39.2721 96.047 37.5025 96.047 34.9868Z" fill="#484B4B"></path><path d="M113.947 28.3421V41.0386C113.947 46.2613 110.845 48.3943 107.178 48.3943C103.725 48.3943 101.648 46.1018 100.864 44.227L103.587 43.1015C104.072 44.2525 105.261 45.6108 107.175 45.6108C109.522 45.6108 110.977 44.1728 110.977 41.4658V40.4487H110.868C110.168 41.3064 108.819 42.0557 107.117 42.0557C103.555 42.0557 100.292 38.9756 100.292 35.0124C100.292 31.0204 103.555 27.9148 107.117 27.9148C108.816 27.9148 110.164 28.6641 110.868 29.4963H110.977V28.3453H113.947V28.3421ZM111.198 35.0124C111.198 32.5222 109.525 30.7016 107.396 30.7016C105.238 30.7016 103.43 32.5222 103.43 35.0124C103.43 37.477 105.238 39.2721 107.396 39.2721C109.525 39.2721 111.198 37.477 111.198 35.0124Z" fill="#484B4B"></path><path d="M118.845 20.9002V41.6252H115.794V20.9002H118.845Z" fill="#484B4B"></path><path d="M130.733 37.3144L133.161 38.9214C132.378 40.0724 130.489 42.0557 127.226 42.0557C123.18 42.0557 120.158 38.9501 120.158 34.9837C120.158 30.7781 123.206 27.9116 126.876 27.9116C130.573 27.9116 132.381 30.8323 132.972 32.4106L133.296 33.2141L123.774 37.1295C124.503 38.5484 125.637 39.2721 127.226 39.2721C128.819 39.2721 129.924 38.4942 130.733 37.3144ZM123.26 34.77L129.625 32.1459C129.275 31.2627 128.222 30.6473 126.982 30.6473C125.393 30.6473 123.18 32.0407 123.26 34.77Z" fill="#484B4B"></path><path d="M57.9214 33.1471V30.1468H68.1047C68.2043 30.6697 68.2556 31.2882 68.2556 31.9578C68.2556 34.2089 67.6358 36.9924 65.6384 38.9756C63.6955 40.9843 61.2131 42.0557 57.9246 42.0557C51.8294 42.0557 46.704 37.1263 46.704 31.0746C46.704 25.0229 51.8294 20.0935 57.9246 20.0935C61.2965 20.0935 63.6987 21.4072 65.5035 23.1194L63.3711 25.2365C62.0769 24.0313 60.3235 23.0939 57.9214 23.0939C53.4704 23.0939 49.9892 26.6554 49.9892 31.0746C49.9892 35.4938 53.4704 39.0553 57.9214 39.0553C60.8084 39.0553 62.4526 37.9043 63.506 36.8585C64.3602 36.0103 64.9222 34.7987 65.1438 33.1439L57.9214 33.1471Z" fill="#484B4B"></path></svg> 