<?xml version="1.0" encoding="UTF-8"?> <svg xmlns="http://www.w3.org/2000/svg" viewBox="0 0 181 68"><rect fill="#fff" height="67.27" rx="8" width="180" y=".61"></rect><g fill="#484b4b"><path d="m160.54 39.03c-.44 0-.8.35-.8.79s.36.79.8.79.8-.35.8-.79-.36-.79-.8-.79zm0 1.46c-.37 0-.67-.3-.67-.67s.3-.67.67-.67.67.3.67.67-.3.67-.67.67zm.26-.8c0-.14-.1-.23-.25-.23h-.25v.72h.12v-.26h.14l.13.26h.13l-.15-.29c.08-.04.13-.11.13-.2zm-.26.12h-.12v-.24h.12c.08 0 .13.04.13.12s-.05.12-.13.12zm-95.91-8.78v-1.91h-2.95v11.38h2.95v-6.82c0-1.24.8-1.84 2.04-1.84h1.62v-2.71h-1.38c-1.08 0-2.02.56-2.28 1.91zm6.43-6.41c-1.01 0-1.78.79-1.78 1.8s.77 1.77 1.78 1.77 1.78-.79 1.78-1.77-.77-1.8-1.78-1.8zm-1.48 15.88h2.94v-11.38h-2.94zm16.98-5.69c0 3.25-2.65 5.88-5.92 5.88-1.32 0-2.52-.43-3.48-1.15v4.3h-2.94v-14.72h2.94v.96c.96-.73 2.16-1.15 3.48-1.15 3.27 0 5.92 2.63 5.92 5.88zm-2.97 0c0-1.76-1.44-3.19-3.22-3.19s-3.22 1.43-3.22 3.19 1.44 3.19 3.22 3.19 3.22-1.43 3.22-3.19zm54.15-1-1.72-.47c-1.13-.29-1.57-.64-1.57-1.23s.62-.98 1.51-.98 1.5.55 1.5 1.25v.07h2.71v-.07c0-2.06-1.69-3.45-4.22-3.45s-4.32 1.39-4.32 3.3c0 1.49.99 2.61 2.72 3.07l1.65.45c1.25.34 1.71.73 1.71 1.41 0 .72-.67 1.21-1.67 1.21s-1.74-.66-1.74-1.63v-.07h-2.88v.07c0 2.33 1.89 3.96 4.6 3.96s4.51-1.59 4.51-3.79c0-1.08-.49-2.48-2.79-3.1zm-40.74-4.69h2.94v11.38h-2.94v-.96c-.96.73-2.16 1.15-3.47 1.15-3.27 0-5.92-2.63-5.92-5.88s2.65-5.88 5.92-5.88c1.32 0 2.52.43 3.47 1.16v-.96zm0 5.69c0-1.77-1.44-3.19-3.22-3.19s-3.22 1.43-3.22 3.19 1.44 3.19 3.22 3.19 3.22-1.43 3.22-3.19zm13.58-9.74h2.94v15.43h-2.94v-.96c-.96.73-2.16 1.16-3.47 1.16-3.27 0-5.92-2.63-5.92-5.88s2.65-5.88 5.92-5.88c1.32 0 2.52.43 3.47 1.15v-5.01zm0 9.74c0-1.76-1.44-3.19-3.22-3.19s-3.22 1.43-3.22 3.19 1.44 3.19 3.22 3.19 3.22-1.43 3.22-3.19zm16.62 5.69h2.94v-11.38h-2.94zm1.47-15.88c-1.01 0-1.78.79-1.78 1.8s.77 1.77 1.78 1.77 1.78-.79 1.78-1.77-.77-1.8-1.78-1.8zm24.59 10.19c0 3.25-2.65 5.88-5.92 5.88s-5.92-2.63-5.92-5.88 2.65-5.88 5.92-5.88 5.92 2.63 5.92 5.88zm-2.7 0c0-1.76-1.44-3.19-3.22-3.19s-3.22 1.43-3.22 3.19 1.44 3.19 3.22 3.19 3.22-1.43 3.22-3.19zm-98.73-9.74v2.61h4.18v12.82h2.93v-12.82h4.18v-2.61h-11.3zm68.43 12.31-2.62-8.26h-3.09l3.93 11.38h3.54l3.95-11.38h-3.09zm37.32-6.35v-1.91h-2.95v11.38h2.95v-6.82c0-1.24.8-1.84 2.04-1.84h1.62v-2.71h-1.38c-1.08 0-2.02.56-2.28 1.91z"></path><path d="m34.72 19.04c-8.32 0-15.06 6.69-15.06 14.96s6.73 14.96 15.06 14.96 15.06-6.69 15.06-14.96-6.71-14.96-15.06-14.96zm0 28.26c-7.38 0-13.36-5.96-13.36-13.3s6-13.28 13.38-13.28 13.36 5.94 13.36 13.28-6 13.28-13.38 13.28zm-3.35-12.28c0 1.02-.84 1.83-1.84 1.83s-1.84-.83-1.84-1.83.82-1.83 1.84-1.83 1.84.81 1.84 1.81zm10.4 0c0 1.02-.84 1.83-1.84 1.83s-1.84-.83-1.84-1.83.82-1.83 1.84-1.83 1.82.81 1.84 1.81zm1.67-3.8 1.69-1.83h-3.76c-3.99-2.7-9.24-2.7-13.24 0h-3.81l1.69 1.83c-2.24 1.79-2.57 5.05-.77 7.25s5.08 2.56 7.3.77c.17-.15.33-.29.5-.46l1.67 1.81 1.67-1.81c2.11 1.93 5.4 1.79 7.34-.31s1.8-5.36-.31-7.29v.04h.02zm-13.91 7.29c-1.94 0-3.51-1.56-3.51-3.49s1.57-3.49 3.51-3.49 3.51 1.56 3.51 3.47-1.57 3.49-3.51 3.51v-.02zm5.19-3.6c0-2.31-1.69-4.28-3.91-5.11 2.49-1.04 5.31-1.04 7.8 0-2.22.83-3.89 2.8-3.89 5.11zm5.21 3.58c-1.94 0-3.51-1.56-3.51-3.49s1.57-3.49 3.51-3.49 3.51 1.56 3.51 3.49-1.57 3.49-3.51 3.49z"></path></g></svg> 